<svg width="935" height="930" viewBox="0 0 935 930" fill="none" xmlns="http://www.w3.org/2000/svg">
<g clip-path="url(#clip0_52_912)">
<path d="M615.88 859.313C569.651 876.609 519.596 886.066 467.333 886.066C233.165 886.066 43.3333 696.234 43.3333 462.066C43.3333 314.384 118.837 184.337 233.348 108.42" stroke="white" stroke-width="86.6667" stroke-miterlimit="10" stroke-linecap="round"/>
<path d="M874.359 581.236C847.329 673.696 789.651 753.078 713.064 807.637" stroke="white" stroke-width="86.6667" stroke-miterlimit="10" stroke-linecap="round"/>
<path d="M335.475 13.3371C335.475 13.3371 340.547 12.2265 349.423 10.2851C351.643 9.79978 354.1 9.26241 356.775 8.67841C357.389 8.52508 358.292 8.40243 359.068 8.26109C359.877 8.12376 360.703 7.98377 361.543 7.84111C363.223 7.55977 364.965 7.26643 366.764 6.96376C370.363 6.37176 374.195 5.74108 378.233 5.07574C379.243 4.91441 380.267 4.74775 381.301 4.58108C381.82 4.49841 382.34 4.41443 382.864 4.33043C383.369 4.2731 383.877 4.21446 384.389 4.15712C386.428 3.93046 388.516 3.69843 390.647 3.46109C394.912 2.99709 399.353 2.51178 403.95 2.01044C405.1 1.88778 406.259 1.7624 407.428 1.63707C408.597 1.5264 409.781 1.48911 410.972 1.41044C413.353 1.27578 415.771 1.13846 418.223 0.998464C420.673 0.862464 423.159 0.725118 425.675 0.585118C426.933 0.517118 428.199 0.447779 429.472 0.379779L431.386 0.275743L432.348 0.225092L432.829 0.198464L433.071 0.18642L434.088 0.163764C438.773 0.11443 443.559 0.0624435 448.427 0.0104435C449.563 -0.0215565 451.059 0.027756 452.456 0.055756C453.868 0.087756 455.287 0.121087 456.709 0.153087C459.556 0.22642 462.421 0.298438 465.305 0.371772L467.472 0.431798L469.554 0.551785C470.94 0.637118 472.328 0.721074 473.721 0.806407C476.505 0.981074 479.305 1.1558 482.115 1.3318C484.927 1.46646 487.737 1.8091 490.56 2.0691C493.383 2.34777 496.213 2.62774 499.049 2.90908C501.889 3.14908 504.713 3.60246 507.549 3.96513L516.054 5.12112C521.72 5.93579 527.348 7.01176 532.972 7.95576C538.579 8.99576 544.124 10.2478 549.642 11.3851C555.14 12.6305 560.553 14.0438 565.92 15.3571C571.258 16.7785 576.492 18.3398 581.657 19.8024C586.797 21.3531 591.797 23.0518 596.716 24.6318C601.623 26.2545 606.339 28.0811 610.972 29.7397C612.127 30.1637 613.273 30.5851 614.413 31.0024C615.537 31.4571 616.653 31.9078 617.763 32.3545C619.977 33.2505 622.16 34.1344 624.305 35.0024C626.445 35.8891 628.577 36.6917 630.613 37.6091C632.653 38.5171 634.655 39.4091 636.617 40.2824C644.506 43.6811 651.519 47.2651 657.793 50.3144C663.989 53.5131 669.338 56.4118 673.748 58.7851C682.416 63.7998 687.368 66.6664 687.368 66.6664C698.297 72.9891 702.031 86.9731 695.708 97.9024C689.861 108.008 677.46 111.961 666.984 107.497L663.647 106.077C663.647 106.077 658.872 104.049 650.516 100.5C646.284 98.8611 641.169 96.8571 635.285 94.6837C629.325 92.6637 622.705 90.2398 615.309 88.1051C613.476 87.5478 611.604 86.9784 609.696 86.3971C607.797 85.8091 605.808 85.3411 603.82 84.7944C601.829 84.2651 599.805 83.7264 597.748 83.1798C596.723 82.9078 595.691 82.6331 594.649 82.3571C593.597 82.1158 592.537 81.8731 591.472 81.6278C587.196 80.6878 582.866 79.5958 578.378 78.7211C573.877 77.8878 569.325 76.9478 564.667 76.1638C559.981 75.4691 555.26 74.6811 550.465 74.0371C545.64 73.5011 540.801 72.8691 535.908 72.3985C530.991 72.0371 526.08 71.5611 521.133 71.2891C516.169 71.1117 511.232 70.7971 506.279 70.7291L498.861 70.6878C496.392 70.6931 493.944 70.6051 491.481 70.7265C489.029 70.8025 486.584 70.8784 484.143 70.9544C481.708 71.0478 479.293 71.0545 476.875 71.2625C474.468 71.4265 472.069 71.5891 469.683 71.7518C467.324 71.9398 464.885 72.0104 462.659 72.3078C460.403 72.5571 458.16 72.8024 455.935 73.0477C454.827 73.1677 453.724 73.2877 452.625 73.4064C451.517 73.5291 450.489 73.6238 449.217 73.8051C444.357 74.4531 439.577 75.0904 434.899 75.7144L434.788 75.7291C435.925 75.7105 435.045 75.7344 435.273 75.7358L435.072 75.7731L434.668 75.8518L433.864 76.0051L432.263 76.3091C431.2 76.5117 430.144 76.7131 429.095 76.9144C427.001 77.3117 424.933 77.7038 422.893 78.0918C420.861 78.4758 418.857 78.8544 416.884 79.2278C415.9 79.4238 414.92 79.5771 413.956 79.8024C412.995 80.0411 412.041 80.2771 411.096 80.5117C407.331 81.4424 403.693 82.3411 400.2 83.2037C398.464 83.6304 396.764 84.0491 395.101 84.4571C394.688 84.5598 394.277 84.6611 393.868 84.7638C393.483 84.8851 393.1 85.0065 392.719 85.1265C391.959 85.3651 391.208 85.6024 390.467 85.8358C387.517 86.7558 384.721 87.6277 382.093 88.4477C380.788 88.8504 379.525 89.2411 378.305 89.6158C377.697 89.8024 377.1 89.9864 376.515 90.1664C375.903 90.3611 375.419 90.4798 374.724 90.7358C372.121 91.6478 369.729 92.4864 367.571 93.2424C358.932 96.2717 353.995 98.0011 353.995 98.0011C331.327 105.948 306.508 94.0104 298.563 71.3411C290.617 48.6718 302.553 23.8544 325.223 15.9091C326.829 15.3451 328.447 14.8824 330.069 14.5158L335.475 13.3371Z" fill="white"/>
<path d="M573.205 804.849C573.205 804.849 571.697 805.272 568.869 806.068C567.456 806.465 565.712 806.954 563.661 807.53C563.149 807.674 562.617 807.824 562.068 807.978C561.404 808.143 560.717 808.316 560.009 808.493C558.579 808.847 557.057 809.219 555.452 809.616C548.857 811.302 541.595 812.785 533.037 814.367C530.896 814.719 528.687 815.084 526.411 815.459C524.135 815.822 521.799 816.242 519.38 816.514C516.967 816.816 514.489 817.128 511.956 817.447C510.688 817.6 509.405 817.754 508.109 817.913C506.808 818.028 505.493 818.143 504.165 818.261C501.509 818.492 498.797 818.728 496.032 818.968C493.268 819.19 490.444 819.274 487.576 819.431C481.839 819.796 475.905 819.809 469.807 819.869C469.045 819.878 468.281 819.889 467.513 819.898L465.905 819.877L465.651 819.867L465.141 819.85L464.12 819.814C462.756 819.767 461.385 819.721 460.004 819.674C457.243 819.58 454.448 819.483 451.623 819.385C446.473 819.367 438.955 818.562 432.051 817.926C428.559 817.577 424.953 817.273 421.483 816.841C418.14 816.309 414.775 815.774 411.387 815.237C408.001 814.688 404.596 814.135 401.173 813.578C397.767 812.936 394.377 812.1 390.959 811.357C387.544 810.584 384.117 809.807 380.68 809.028C378.953 808.674 377.261 808.167 375.565 807.674L370.467 806.198C367.067 805.205 363.661 804.209 360.251 803.213L357.695 802.461L355.184 801.569L350.163 799.776C343.475 797.361 336.732 795.086 330.284 792.146C323.791 789.324 317.235 786.706 311.055 783.418C304.833 780.225 298.52 777.32 292.672 773.737C289.711 772.014 286.768 770.304 283.845 768.604C282.388 767.748 280.937 766.893 279.491 766.042C278.092 765.118 276.697 764.197 275.309 763.281C272.537 761.441 269.788 759.616 267.065 757.808C264.349 755.992 261.624 754.244 259.104 752.264C253.997 748.405 248.951 744.689 244.161 740.92C239.519 736.972 235.003 733.13 230.635 729.416C228.409 727.602 226.451 725.568 224.428 723.681C222.431 721.766 220.472 719.889 218.552 718.049C216.645 716.196 214.735 714.425 212.953 712.609C211.221 710.748 209.528 708.926 207.877 707.152C204.591 703.59 201.435 700.246 198.561 697.022C195.78 693.717 193.177 690.622 190.769 687.761C189.545 686.346 188.371 684.989 187.249 683.692C186.14 682.384 185.008 681.194 184.061 679.962C182.108 677.544 180.363 675.384 178.845 673.505C177.32 671.63 175.947 670.084 174.872 668.802C173.791 667.525 172.956 666.548 172.367 665.908C171.788 665.258 171.489 664.924 171.489 664.924C161.585 653.838 162.544 636.822 173.631 626.918C184.716 617.016 201.732 617.973 211.635 629.06C211.868 629.321 212.096 629.586 212.317 629.854L216.001 634.352C216.001 634.352 216.963 635.525 218.765 637.726C220.543 639.942 223.237 643.128 226.671 647.144C227.5 648.172 228.485 649.165 229.5 650.22C230.513 651.273 231.573 652.376 232.677 653.526C234.883 655.814 237.267 658.289 239.815 660.933C242.501 663.444 245.441 666.029 248.476 668.79C249.996 670.164 251.556 671.573 253.152 673.014C254.789 674.41 256.548 675.75 258.292 677.164C260.044 678.565 261.832 679.994 263.653 681.452C265.492 682.882 267.259 684.453 269.28 685.794C273.208 688.569 277.269 691.438 281.444 694.388C285.733 697.16 290.227 699.858 294.733 702.686C296.952 704.149 299.363 705.38 301.751 706.673C304.136 707.962 306.544 709.261 308.972 710.574C310.18 711.228 311.393 711.885 312.611 712.545C313.871 713.133 315.135 713.722 316.403 714.313C318.932 715.488 321.479 716.672 324.043 717.862C329.075 720.39 334.511 722.242 339.805 724.394C345.06 726.64 350.635 728.228 356.095 730.04C361.513 731.972 367.173 733.253 372.735 734.708L376.903 735.786L378.983 736.324L381.101 736.728C383.916 737.265 386.727 737.805 389.533 738.341L393.719 739.15C395.108 739.422 396.491 739.713 397.908 739.853C400.713 740.209 403.511 740.566 406.297 740.92C409.081 741.253 411.824 741.689 414.583 741.942C417.348 742.118 420.1 742.294 422.836 742.468C425.556 742.648 428.259 742.828 430.943 743.005C433.548 743.068 436.031 742.99 438.533 743.004C443.616 742.953 447.948 743.169 454.029 742.732C456.863 742.586 459.665 742.442 462.435 742.301C463.819 742.229 465.195 742.157 466.561 742.086L467.584 742.034L468.096 742.009L468.351 741.996C469.385 742.009 467.084 741.972 467.361 741.97L467.475 741.957L469.276 741.75C474.059 741.205 478.693 740.752 483.137 739.994C485.36 739.638 487.547 739.368 489.677 738.972C491.803 738.564 493.885 738.164 495.928 737.773C496.947 737.581 497.953 737.389 498.951 737.2C499.939 736.973 500.917 736.75 501.885 736.528C503.813 736.082 505.697 735.648 507.535 735.224C509.373 734.837 511.139 734.313 512.857 733.853C514.573 733.388 516.24 732.936 517.855 732.498C524.251 730.61 529.944 728.834 533.888 727.31C534.921 726.94 535.9 726.589 536.82 726.26C537.285 726.093 537.736 725.933 538.172 725.777C538.707 725.573 539.224 725.374 539.724 725.184C541.719 724.418 543.417 723.769 544.793 723.244C547.545 722.189 549.013 721.628 549.013 721.628C571.411 713.053 596.517 724.258 605.089 746.656C613.664 769.052 602.459 794.158 580.063 802.733C578.833 803.202 577.597 803.614 576.356 803.966L573.205 804.849Z" fill="white"/>
<path d="M370.169 48.0852L612.211 744.769C620.065 767.376 608.105 792.07 585.499 799.924C562.892 807.778 538.197 795.818 530.344 773.212L288.303 76.5278C280.449 53.9211 292.408 29.2278 315.016 21.3731C337.623 13.5198 362.316 25.4785 370.169 48.0852Z" fill="white"/>
<path d="M473.44 140.14C483.097 139.213 492.861 138.648 502.723 138.458C654.925 135.518 787.901 222.724 850.663 351.017" stroke="white" stroke-width="86.6667" stroke-miterlimit="10" stroke-linecap="round"/>
<path d="M467.532 141.396L703.773 814.371" stroke="white" stroke-width="86.6667" stroke-miterlimit="10" stroke-linecap="round"/>
<path d="M580.048 461.925L891.333 462.724" stroke="white" stroke-width="86.6667" stroke-miterlimit="10" stroke-linecap="round"/>
<path d="M281.603 105.928L341.084 285.704C345.735 299.757 338.111 314.918 324.059 319.569C311.483 323.729 298.02 318.062 291.996 306.754L289.817 302.666L199.323 133.152C187.969 111.885 196.005 85.4411 217.272 74.0878C238.54 62.7345 264.984 70.7704 276.337 92.0371C277.489 94.1957 278.441 96.4065 279.2 98.6491L281.603 105.928Z" fill="white"/>
</g>
<defs>
<clipPath id="clip0_52_912">
<rect width="934.667" height="929.4" fill="white"/>
</clipPath>
</defs>
</svg>
