<?xml version="1.0" encoding="UTF-8" standalone="no"?>
<!-- Created with Inkscape (http://www.inkscape.org/) -->

<svg
   version="1.1"
   id="svg2"
   width="1514.8492"
   height="342.30667"
   viewBox="0 0 1514.8492 342.30667"
   xmlns="http://www.w3.org/2000/svg"
   xmlns:svg="http://www.w3.org/2000/svg">
  <defs
     id="defs6" />
  <g
     id="g10"
     transform="matrix(1.3333333,0,0,-1.3333333,-56.764,679.28665)">
    <g
       id="g12"
       transform="scale(0.1)">
      <path
         d="m 425.73,3802.41 c 0,335.79 292.293,617.64 635.04,617.64 180.94,0 347.97,-76.55 464.54,-200.08 l -186.17,-167.02 c -69.59,80.03 -168.76,133.96 -278.37,133.96 -200.079,0 -370.582,-177.46 -370.582,-384.5 0,-208.78 170.503,-386.24 370.582,-386.24 109.61,0 208.78,53.94 278.37,133.97 l 186.17,-167.02 c -116.57,-121.8 -283.6,-200.09 -464.54,-200.09 -342.747,0 -635.04,283.59 -635.04,619.38"
         style="fill:#212120;fill-opacity:1;fill-rule:nonzero;stroke:none"
         id="path18" />
      <path
         d="m 2285.6,3609.3 -177.46,436.69 -177.46,-436.69 z m 88.74,-217.49 h -532.4 l -76.54,-187.9 h -287.08 l 487.15,1195.26 h 287.08 L 2739.7,3203.91 h -288.81 l -76.55,187.9"
         style="fill:#212120;fill-opacity:1;fill-rule:nonzero;stroke:none"
         id="path20" />
      <path
         d="m 3026.74,3826.77 h 254.02 c 127.01,0 214,66.11 214,168.76 0,102.65 -86.99,168.77 -214,168.77 h -254.02 z m 462.8,-622.86 -273.15,387.97 h -189.65 v -387.97 h -255.75 v 1195.26 h 537.61 c 259.23,0 450.61,-167.02 450.61,-403.64 0,-177.45 -107.87,-316.65 -271.41,-374.07 l 294.03,-417.55 h -292.29"
         style="fill:#212120;fill-opacity:1;fill-rule:nonzero;stroke:none"
         id="path22" />
      <path
         d="m 4098.46,4167.78 v -238.36 h 600.24 v -231.4 H 4098.46 V 3435.3 h 662.87 v -231.39 h -920.37 v 1195.26 h 920.37 v -231.39 h -662.87"
         style="fill:#212120;fill-opacity:1;fill-rule:nonzero;stroke:none"
         id="path24" />
      <path
         d="m 5104.06,4167.78 v -238.36 h 600.24 v -231.4 H 5104.06 V 3435.3 h 662.87 v -231.39 h -920.37 v 1195.26 h 920.37 v -231.39 h -662.87"
         style="fill:#212120;fill-opacity:1;fill-rule:nonzero;stroke:none"
         id="path26" />
      <path
         d="m 6107.92,3826.77 h 254.01 c 127.02,0 214,66.11 214,168.76 0,102.65 -86.98,168.77 -214,168.77 h -254.01 z m 462.78,-622.86 -273.14,387.97 h -189.64 v -387.97 h -255.76 v 1195.26 h 537.61 c 259.23,0 450.62,-167.02 450.62,-403.64 0,-177.45 -107.87,-316.65 -271.43,-374.07 L 6863,3203.91 h -292.3"
         style="fill:#212120;fill-opacity:1;fill-rule:nonzero;stroke:none"
         id="path28" />
      <path
         d="m 7411.03,3917.25 c -184.42,41.75 -255.77,69.59 -255.77,156.58 0,71.33 66.13,128.74 175.74,128.74 74.1,0 150.36,-19.66 223.67,-56.45 l 37.84,232.76 c -75.68,26.71 -159.96,41.17 -254.55,41.17 -260.99,0 -441.92,-151.36 -441.92,-372.32 0,-231.4 179.19,-302.73 431.47,-360.15 60.73,-13.88 108.9,-26.04 146.23,-39.21 l 39.57,243.39 c -32.27,9.08 -66.4,17.48 -102.28,25.49"
         style="fill:#212120;fill-opacity:1;fill-rule:nonzero;stroke:none"
         id="path30" />
      <path
         d="m 7384.93,3400.51 c -151.37,0 -280.12,59.15 -393.2,156.59 l -147.88,-175.72 c 139.19,-128.76 323.6,-198.35 530.64,-198.35 7.99,0 15.85,0.16 23.66,0.39 l 35.82,220.37 c -15.21,-2.09 -31.49,-3.28 -49.04,-3.28"
         style="fill:#212120;fill-opacity:1;fill-rule:nonzero;stroke:none"
         id="path32" />
      <path
         d="m 10302.6,3420.2 220.1,170.82 c 211.3,153.2 281.8,278.24 281.8,440.25 0,227.17 -186.7,385.66 -443.8,385.67 l -168.4,-279.77 c 48.9,28.31 101.5,43.79 161.3,43.79 98.7,0 183.2,-59.88 183.2,-160.25 0,-84.53 -45.8,-163.78 -190.2,-278.25 L 9901.04,3397.29 V 3185.98 H 10815 v 234.22 h -512.4"
         style="fill:#c37fff;fill-opacity:1;fill-rule:nonzero;stroke:none"
         id="path34" />
      <path
         d="m 10834.4,3367.36 153.2,172.58 c 84.5,-91.57 199,-142.65 320.5,-142.65 133.8,0 211.3,61.65 211.3,147.93 0,93.33 -72.2,140.89 -236,139.13 h -139.1 v 221.89 l 139.1,-1.76 c 132.1,0 211.4,49.31 211.4,135.6 0,88.05 -82.8,144.4 -202.5,144.4 -114.5,0 -204.3,-56.35 -285.3,-140.88 l -149.7,158.49 c 100.4,121.52 244.8,214.85 459.6,214.85 273,0 443.8,-139.12 443.8,-331.07 0,-139.12 -95.1,-239.5 -227.2,-278.24 132.1,-29.94 253.6,-123.28 253.6,-283.54 0,-209.56 -184.9,-361.01 -466.7,-361.01 -218.3,0 -383.9,86.29 -486,204.28"
         style="fill:#c37fff;fill-opacity:1;fill-rule:nonzero;stroke:none"
         id="path36" />
      <path
         d="m 7801.38,4167.14 h 60.63 c 220.12,0 376.39,-152.14 376.39,-365.49 0,-215.11 -156.27,-367.26 -376.39,-367.26 H 7682.03 M 7400.71,3199.2 h 412.35 c 404.32,0 691.39,250.3 691.39,602.12 0,351.82 -287.07,600.37 -691.39,600.37 h -216.84"
         style="fill:none;stroke:#212120;stroke-width:40;stroke-linecap:round;stroke-linejoin:round;stroke-miterlimit:10;stroke-dasharray:none;stroke-opacity:1"
         id="path38" />
      <path
         d="m 9239.63,3607.03 -178.54,439.34 -178.54,-439.34 z m 89.26,-218.79 h -535.6 l -77.02,-189.04 h -288.81 l 490.11,1202.49 h 288.8 l 490.1,-1202.49 h -290.56 z"
         style="fill:none;stroke:#212120;stroke-width:40;stroke-linecap:round;stroke-linejoin:round;stroke-miterlimit:10;stroke-dasharray:none;stroke-opacity:1"
         id="path40" />
      <path
         d="m 9911.81,3633.28 -470.84,768.41 h 301.05 l 299.28,-526.86 311.6,526.86 h 288.8 l -469.1,-768.41 V 3199.2 h -260.79 z"
         style="fill:none;stroke:#212120;stroke-width:40;stroke-linecap:round;stroke-linejoin:round;stroke-miterlimit:10;stroke-dasharray:none;stroke-opacity:1"
         id="path42" />
      <path
         d="M 7610.7,4399.78 7409.14,3201.01"
         style="fill:none;stroke:#212120;stroke-width:40;stroke-linecap:butt;stroke-linejoin:miter;stroke-miterlimit:10;stroke-dasharray:none;stroke-opacity:1"
         id="path44" />
      <path
         d="m 7434.18,3234.89 -136.43,-707.54 96.96,714.03 z"
         style="fill:#212120;fill-opacity:1;fill-rule:nonzero;stroke:none"
         id="path46" />
      <path
         d="m 7585.66,4387.11 136.43,707.54 -96.95,-714.03 z"
         style="fill:#212120;fill-opacity:1;fill-rule:nonzero;stroke:none"
         id="path48" />
      <g
         id="g50"
         transform="scale(10)">
        <text
           xml:space="preserve"
           transform="matrix(1,0,0,-1,42.573,473.926)"
           style="font-variant:normal;font-weight:300;font-size:18.2px;font-family:Metropolis;-inkscape-font-specification:Metropolis-Light;writing-mode:lr-tb;fill:#2e2d2d;fill-opacity:1;fill-rule:nonzero;stroke:none"
           id="text54"><tspan
             x="0 18.964399 35.326199 52.215401 70.888687 87.851089 104.52198 125.01518 141.3765 160.3409 177.0118 187.49519 207.3878 223.5489 234.0318 251.3399 271.23251 291.72574 308.61533 327.14264 343.81354 360.17535 377.13776 387.6207 403.92776 421.50888 430.75403 447.11584 466.08026 483.66141 500.02267 510.5061 527.75903 538.24249 554.60376 573.5686 592.31366 601.55975 620.52368 636.88501 653.24731 670.20923 679.45435 698.41925"
             y="0"
             id="tspan52">DEPARTMENT OF COMPUTER SCIENCE &amp; ENGINEERING</tspan></text>
      </g>
    </g>
  </g>
</svg>
